<svg xmlns="http://www.w3.org/2000/svg" id="svg58" viewBox="0 0 495 439" version="1.1" xml:space="preserve" height="439" width="495"><defs id="defs62"></defs>
    <path d="m 176.35352,85.916016 c 2.85214,0.305218 6.26779,1.937757 10.8125,4.958984 19.81032,13.16949 27.95095,17.5576 54.05468,29.13867 11.83846,5.25219 28.87979,14.44654 51.7793,27.93555 17.56391,10.34606 72.27954,47.4053 75.3125,51.00976 3.85988,4.58722 4.27421,8.31171 1.52539,13.70118 -3.29747,6.46518 -3.52505,6.57586 -59.83789,29.17187 -20.62498,8.27594 -48.5383,19.50295 -62.0293,24.94922 -39.3454,15.8836 -51.57687,19.56633 -75.34179,22.68164 -6.45272,0.84588 -11.82036,1.48568 -11.92969,1.42188 -0.10933,-0.0638 -1.08113,-0.3397 -2.1582,-0.61329 -6.04604,-1.53578 -9.86356,-8.79612 -7.33594,-13.94921 2.46029,-5.01584 5.59411,-6.25876 24.83984,-9.8418 24.79495,-4.61616 34.55027,-7.80136 71.45508,-23.32813 23.20115,-9.7613 83.23077,-34.52376 89.82422,-37.05273 1.46355,-0.56135 0.17573,-1.81135 -6.5,-6.3125 -4.57884,-3.0873 -14.3943,-9.89584 -21.81445,-15.13086 C 281.45716,165.2175 249.03017,146.75381 227,137.96094 c -21.67642,-8.65168 -50.21389,-25.29339 -57.75,-33.67774 -4.46922,-4.972253 -4.59862,-11.086928 -0.32617,-15.359372 2.28984,-2.289837 4.57754,-3.313031 7.42969,-3.007812 z" style="fill:#000000" id="path222"></path>
  </svg>
