<svg xmlns="http://www.w3.org/2000/svg" id="svg58" viewBox="0 0 495 439" version="1.1" xml:space="preserve" height="439" width="495"><defs id="defs62"></defs>
    <path d="M 0 0 L 0 219.5 L 0 439 L 247.5 439 L 495 439 L 495 219.5 L 495 0 L 247.5 0 L 0 0 z M 176.35352 85.916016 C 179.20566 86.221234 182.62131 87.853773 187.16602 90.875 C 206.97634 104.04449 215.11697 108.4326 241.2207 120.01367 C 253.05916 125.26586 270.10049 134.46021 293 147.94922 C 310.56391 158.29528 365.27954 195.35452 368.3125 198.95898 C 372.17238 203.5462 372.58671 207.27069 369.83789 212.66016 C 366.54042 219.12534 366.31284 219.23602 310 241.83203 C 289.37502 250.10797 261.4617 261.33498 247.9707 266.78125 C 208.6253 282.66485 196.39383 286.34758 172.62891 289.46289 C 166.17619 290.30877 160.80855 290.94857 160.69922 290.88477 C 160.58989 290.82097 159.61809 290.54507 158.54102 290.27148 C 152.49498 288.7357 148.67746 281.47536 151.20508 276.32227 C 153.66537 271.30643 156.79919 270.06351 176.04492 266.48047 C 200.83987 261.86431 210.59519 258.67911 247.5 243.15234 C 270.70115 233.39104 330.73077 208.62858 337.32422 206.09961 C 338.78777 205.53826 337.49995 204.28826 330.82422 199.78711 C 326.24538 196.69981 316.42992 189.89127 309.00977 184.65625 C 281.45716 165.2175 249.03017 146.75381 227 137.96094 C 205.32358 129.30926 176.78611 112.66755 169.25 104.2832 C 164.78078 99.310947 164.65138 93.196272 168.92383 88.923828 C 171.21367 86.633991 173.50137 85.610797 176.35352 85.916016 z" style="fill:#000000" id="path222"></path>
  </svg>
